# xmcd
#
# Track frame offsets:
#	150
#	18340
#	35598
#	50241
#	66748
#	82184
#	99916
#	124402
#	140586
#	159437
#	175054
#	193406
#	215412
#	232616
#	249193
#	279767
#
# Disc length: 3739 seconds
#
# Revision: 1
# Processed by: cddbd v1.5.2PL0 Copyright (c) Steve Scherf et al.
# Submitted via: audiograbber 1.83.01
#
DISCID=e40e9910
DTITLE=Sound Choice - SC8998
DYEAR=1900
DGENRE=
TTITLE0=Adkins, Trace - Ladies Love Country Boys
TTITLE1=Holy, Steve - Brand New Girlfriend
TTITLE2=Clark, Terri - Dirty Girl
TTITLE3=Rascal Flatts - Stand
TTITLE4=Montgomery Gentry - Lucky Man
TTITLE5=Mellencamp, John - Our Country
TTITLE6=Urban, Keith and Dunn, Ronnie - Raise The Barn
TTITLE7=Keith, Toby - High Maintenance Woman
TTITLE8=Wreckers - Tennessee (Radio)
TTITLE9=Little Big Town - We Go Together
TTITLE10=Morgan, Craig - Little Bit Of Life
TTITLE11=Underwood, Carrie - Wasted
TTITLE12=Currington, Billy - Good Directions
TTITLE13=Covington, Bucky - A Different World
TTITLE14=Lambert, Miranda - Famous In A Small Town
TTITLE15=xx - Data Track
EXTD=
EXTT0=
EXTT1=
EXTT2=
EXTT3=
EXTT4=
EXTT5=
EXTT6=
EXTT7=
EXTT8=
EXTT9=
EXTT10=
EXTT11=
EXTT12=
EXTT13=
EXTT14=
EXTT15=
PLAYORDER=
